<?xml version="1.0" encoding="utf-8"?>
<!-- Generator: Adobe Illustrator 16.0.0, SVG Export Plug-In . SVG Version: 6.00 Build 0)  -->
<!DOCTYPE svg PUBLIC "-//W3C//DTD SVG 1.1//EN" "http://www.w3.org/Graphics/SVG/1.1/DTD/svg11.dtd">
<svg version="1.1" id="Layer_1" xmlns="http://www.w3.org/2000/svg" xmlns:xlink="http://www.w3.org/1999/xlink" x="0px" y="0px"
	 width="24px" height="24px" viewBox="0 0 24 24" enable-background="new 0 0 24 24" xml:space="preserve">
<g>
	<path fill="none" stroke="#444444" stroke-width="1.5" stroke-linecap="round" stroke-linejoin="round" d="M3,5h2.873l1.641,8.42
		l10.063,0.016l1.274-6.891"/>
	<path fill="none" stroke="#444444" stroke-width="1.5" d="M8.912,19.602c1.031,0,1.868-0.806,1.868-1.8
		C10.78,16.807,9.943,16,8.912,16c-1.032,0-1.868,0.807-1.868,1.801C7.044,18.796,7.88,19.602,8.912,19.602z M16.363,19.602
		c1.031,0,1.867-0.806,1.867-1.8c0-0.995-0.836-1.802-1.867-1.802s-1.867,0.807-1.867,1.801
		C14.496,18.796,15.332,19.602,16.363,19.602z M6.833,8.798H19"/>
</g>
</svg>
