<svg width="24" height="24" viewBox="0 0 24 24" xmlns="http://www.w3.org/2000/svg">
    <g fill="none" fill-rule="evenodd">
        <path d="M0 0h24v24H0z"/>
        <path d="M17.52 19.77H6.481c-.144 0-.262-.118-.263-.228L6.83 8.944c0-.146.118-.263.262-.263h1.467v1.575c0 .34.273.615.61.615.338 0 .61-.275.61-.615V8.68h4.442v1.575c0 .34.272.615.61.615.337 0 .61-.275.61-.615V8.68h1.468c.144 0 .262.117.263.298l.609 10.527a.263.263 0 0 1-.262.264zM9.78 6.47c0-1.234.996-2.239 2.22-2.239a2.232 2.232 0 0 1 2.22 2.24v.978H9.78V6.47zm8.61 2.474a1.49 1.49 0 0 0-1.48-1.495h-1.47V6.47C15.44 4.557 13.898 3 12 3S8.56 4.557 8.56 6.47v.98H7.091c-.817 0-1.482.67-1.481 1.458L5 19.506C5 20.33 5.664 21 6.482 21h11.037c.817 0 1.482-.67 1.481-1.53l-.61-10.526z" stroke="#999" stroke-width=".2" fill="#999"/>
    </g>
</svg>
