<svg width="32" height="32" viewBox="0 0 32 32" xmlns="http://www.w3.org/2000/svg">
    <g fill="none" fill-rule="evenodd">
        <path d="M0 0h32v32H0z"/>
        <path d="M7.946 14.537c0-3.634 2.97-6.59 6.623-6.59 3.652 0 6.624 2.956 6.624 6.59 0 3.635-2.972 6.592-6.624 6.592-3.653 0-6.623-2.957-6.623-6.592m17.342 9.728-4.563-4.542a7.98 7.98 0 0 0 1.915-5.186c0-4.431-3.621-8.037-8.071-8.037-4.448 0-8.069 3.606-8.069 8.037 0 4.432 3.62 8.038 8.069 8.038 1.945 0 3.733-.69 5.128-1.837l4.57 4.551a.723.723 0 1 0 1.021-1.024" stroke="#111" stroke-width=".7" fill="#111"/>
    </g>
</svg>
